<svg viewBox="0 0 180 120" xmlns="http://www.w3.org/2000/svg" class="svg-chart">
  <!-- 价格 K线 (红涨) -->
  <g stroke-width="2">
    <rect x="18" y="86" width="6" height="10" fill="var(--up)" stroke="var(--up)"/>
    <line x1="21" y1="82" x2="21" y2="98" stroke="var(--up)"/>
    <rect x="34" y="78" width="6" height="12" fill="var(--up)" stroke="var(--up)"/>
    <line x1="37" y1="72" x2="37" y2="92" stroke="var(--up)"/>
    <rect x="50" y="70" width="6" height="12" fill="var(--up)" stroke="var(--up)"/>
    <line x1="53" y1="64" x2="53" y2="84" stroke="var(--up)"/>
    <rect x="66" y="60" width="6" height="12" fill="var(--up)" stroke="var(--up)"/>
    <line x1="69" y1="54" x2="69" y2="74" stroke="var(--up)"/>
    <rect x="82" y="52" width="6" height="12" fill="var(--up)" stroke="var(--up)"/>
    <line x1="85" y1="46" x2="85" y2="66" stroke="var(--up)"/>
    <rect x="98" y="44" width="6" height="12" fill="var(--up)" stroke="var(--up)"/>
    <line x1="101" y1="38" x2="101" y2="58" stroke="var(--up)"/>
    <rect x="114" y="36" width="6" height="12" fill="var(--up)" stroke="var(--up)"/>
    <line x1="117" y1="30" x2="117" y2="50" stroke="var(--up)"/>
    <rect x="130" y="28" width="6" height="12" fill="var(--up)" stroke="var(--up)"/>
    <line x1="133" y1="22" x2="133" y2="42" stroke="var(--up)"/>
    <rect x="146" y="22" width="6" height="12" fill="var(--up)" stroke="var(--up)"/>
    <line x1="149" y1="16" x2="149" y2="36" stroke="var(--up)"/>
    <rect x="162" y="16" width="6" height="12" fill="var(--up)" stroke="var(--up)"/>
    <line x1="165" y1="10" x2="165" y2="30" stroke="var(--up)"/>
  </g>
  <!-- 均线多头排列 -->
  <polyline points="16,100 40,92 64,82 88,72 112,62 136,52 160,42 176,34" fill="none" stroke="var(--accent-blue)" stroke-width="2"/>
  <polyline points="16,108 40,100 64,90 88,80 112,70 136,60 160,50 176,42" fill="none" stroke="var(--down)" stroke-width="2"/>
  <polyline points="16,114 40,108 64,98 88,88 112,78 136,68 160,58 176,50" fill="none" stroke="var(--ma3)" stroke-width="2"/>
  <text x="150" y="36" font-size="9" fill="var(--accent-blue)" font-family="var(--font-num)">MA5</text>
  <text x="150" y="46" font-size="9" fill="var(--down)" font-family="var(--font-num)">MA10</text>
  <text x="150" y="56" font-size="9" fill="var(--ma3)" font-family="var(--font-num)">MA20</text>
</svg>
